<svg width="267" height="50" viewBox="0 0 267 50" fill="none" xmlns="http://www.w3.org/2000/svg">
<path fill-rule="evenodd" clip-rule="evenodd" d="M160.8 0C170.459 0 178.303 5.34435 178.303 11.9697C178.303 18.6226 170.459 23.9669 160.8 23.9669C151.14 23.9669 143.311 18.595 143.311 11.9697C143.311 5.34435 151.14 0 160.8 0ZM160.8 5.11019C156.287 5.11019 152.626 8.18182 152.626 11.9697C152.626 15.7713 156.287 18.843 160.8 18.843C165.313 18.843 168.973 15.7576 168.973 11.9697C168.973 8.18182 165.313 5.11019 160.8 5.11019ZM119.602 0.220459H109.613V49.1048H119.602V15.0827H130.638V9.32514H119.602V0.220459ZM86.1929 2.07983C76.2169 2.07983 68.126 7.92005 68.126 15.1239C68.126 22.3278 76.2169 28.1955 86.1929 28.1955C96.169 28.1955 104.246 22.3415 104.246 15.1239C104.246 7.90628 96.169 2.07983 86.1929 2.07983ZM86.1929 22.9338C81.3219 22.9338 77.3727 19.449 77.3727 15.1239C77.3727 10.7988 81.3219 7.32777 86.1929 7.32777C91.064 7.32777 95.0131 10.8264 95.0131 15.1239C95.0131 19.4214 91.064 22.9338 86.1929 22.9338ZM193.659 0.234131H183.669V23.6914H193.659V0.234131ZM49.9765 19.6557H34.235V23.6364H58.3426V29.1599H28.7723C23.8462 29.3527 19.9108 32.6309 19.9108 36.9422C19.9108 41.2535 24.0938 44.7521 29.2401 44.7521C34.3864 44.7521 38.5557 41.2535 38.5557 36.9422C38.5557 35.6199 38.1566 34.3802 37.4686 33.3059H47.5823C48.0639 34.4491 48.3391 35.6888 48.3391 36.9422C48.3391 44.1461 39.7941 50.0001 29.2401 50.0001C18.6861 50.0001 10.1412 44.1599 10.1412 36.9422C10.1412 34.0221 11.5447 31.3086 13.9252 29.1599H0V23.6364H24.2452V19.6557H16.4845C12.1914 19.6557 8.73763 16.8183 8.73763 13.3059V0.220459H49.9903V5.7301H18.7412V14.1323H49.9765V19.6557ZM151.416 32.4792H183.71V35.4407H151.416V42.7685C151.416 46.2809 154.883 49.1183 159.163 49.1183H193.7V43.7878H161.405V40.5922H193.7V27.1211H151.402V32.4792H151.416ZM243.966 32.438V41.6391H267V47.1626H210.556V41.6391H233.99V26.9146H249.896V17.6584H227.646V32.438H226.146C221.867 32.438 218.4 29.6006 218.4 26.0744V1.54272H227.646V12.135H249.896V1.54272H259.143V26.0744C259.143 29.5868 255.675 32.438 251.396 32.438H243.966Z" fill="black"/>
</svg>
