<svg width="32" height="30" viewBox="0 0 32 30" fill="none" xmlns="http://www.w3.org/2000/svg">
<path d="M15.9886 0C7.13776 0 0 5.71015 0 12.6423C0 17.142 2.96931 21.082 7.42327 23.3318L5.91578 28.9622C5.88735 29.0465 5.88298 29.1371 5.90315 29.2238C5.92332 29.3106 5.96724 29.39 6.02998 29.4532C6.12147 29.5338 6.23919 29.5785 6.36117 29.5788C6.46231 29.5706 6.55827 29.5307 6.63526 29.4646L13.1221 25.0906C14.0796 25.2228 15.0448 25.2914 16.0114 25.2961C24.8508 25.2961 32 19.5859 32 12.6423C32 5.69873 24.828 0 15.9886 0Z" fill="#392020"/>
<path d="M5.59811 10.6454H3.85079C3.63422 10.6516 3.42033 10.5962 3.23409 10.4855C3.1514 10.4336 3.08032 10.3653 3.02529 10.2847C2.97026 10.2041 2.93248 10.113 2.91432 10.0172C2.90877 9.95639 2.90877 9.89533 2.91432 9.83455C2.90889 9.72082 2.93097 9.60739 2.97868 9.50401C3.0264 9.40063 3.09834 9.31032 3.18841 9.24066C3.38751 9.09647 3.62782 9.0203 3.87363 9.0236H9.13844C9.35673 9.01593 9.57208 9.07578 9.75514 9.19494C9.83978 9.24445 9.91237 9.31221 9.96766 9.39318C10.023 9.47415 10.0596 9.56636 10.0749 9.66321C10.0805 9.72018 10.0805 9.77758 10.0749 9.83455C10.0803 9.94992 10.0583 10.0649 10.0106 10.1701C9.96299 10.2753 9.89109 10.3677 9.80083 10.4397C9.60657 10.5837 9.36858 10.6564 9.12702 10.6454H7.4368V16.6525C7.44367 16.7805 7.42386 16.9084 7.37864 17.0284C7.33342 17.1483 7.26378 17.2575 7.17413 17.3491C7.08816 17.4367 6.98482 17.5053 6.87074 17.5506C6.75666 17.5958 6.63437 17.6166 6.51174 17.6118C6.29726 17.6179 6.08733 17.5494 5.91788 17.4177C5.75657 17.2891 5.64708 17.1066 5.60954 16.9037C5.59825 16.8203 5.59825 16.7359 5.60954 16.6525L5.59811 10.6454Z" fill="#FEE500"/>
<path d="M10.5771 9.46701C10.6273 9.27908 10.7453 9.11634 10.9083 9.01016C11.082 8.91172 11.2799 8.86423 11.4793 8.87312H11.9133C12.1249 8.86554 12.3345 8.91695 12.5186 9.0216C12.7136 9.15278 12.8523 9.35253 12.9069 9.58118L15.1909 16.0337C15.2502 16.2021 15.2997 16.3738 15.3394 16.5477C15.3433 16.62 15.3433 16.6924 15.3394 16.7647C15.3433 16.876 15.3228 16.9868 15.2794 17.0894C15.236 17.1919 15.1707 17.2838 15.0882 17.3586C15.0081 17.4406 14.9121 17.5052 14.806 17.5484C14.6999 17.5917 14.586 17.6125 14.4714 17.6098C14.2953 17.6273 14.1184 17.585 13.9692 17.4897C13.8201 17.3944 13.7073 17.2517 13.6492 17.0845L13.1695 15.6798H10.166L9.6863 17.0845C9.62957 17.255 9.51546 17.4005 9.36344 17.4963C9.21142 17.5921 9.03089 17.6322 8.8526 17.6098C8.65949 17.6148 8.47032 17.5544 8.31584 17.4384C8.16533 17.3187 8.06379 17.1482 8.03033 16.9589C8.02427 16.8943 8.02427 16.8292 8.03033 16.7647C8.01072 16.6513 8.01072 16.5355 8.03033 16.4221C8.03033 16.2965 8.11028 16.1594 8.15596 16.0337L10.5771 9.46701ZM11.7191 10.9631L10.6342 14.3893H12.7926L11.7191 10.9631Z" fill="#FEE500"/>
<path d="M15.6026 9.83244C15.591 9.57614 15.6813 9.3257 15.8538 9.13581C15.9415 9.04735 16.0468 8.97821 16.1629 8.93297C16.2789 8.88772 16.4032 8.86726 16.5276 8.87302C16.7415 8.87052 16.9503 8.93883 17.1215 9.06722C17.2801 9.20118 17.3854 9.38752 17.4184 9.59251C17.4296 9.67206 17.4296 9.75289 17.4184 9.83244V15.8396H20.559C20.7767 15.8367 20.9907 15.8961 21.1757 16.0108C21.2589 16.062 21.3303 16.1303 21.3854 16.211C21.4405 16.2916 21.478 16.383 21.4955 16.4791C21.4955 16.4791 21.4955 16.5933 21.4955 16.6504C21.5009 16.7641 21.4788 16.8774 21.4311 16.9808C21.3834 17.0842 21.3115 17.1746 21.2214 17.2443C21.0223 17.3885 20.782 17.4645 20.5362 17.4612H16.6761C16.4302 17.477 16.1859 17.413 15.9794 17.2786C15.7948 17.1405 15.6717 16.9354 15.6368 16.7076C15.6284 16.5821 15.6284 16.4561 15.6368 16.3306L15.6026 9.83244Z" fill="#FEE500"/>
<path d="M21.6981 9.83163C21.6912 9.57608 21.781 9.32735 21.9493 9.135C22.1205 8.97946 22.34 8.88762 22.571 8.87514C22.8019 8.86266 23.0301 8.93023 23.217 9.06641C23.3791 9.19919 23.4884 9.38544 23.5253 9.5917C23.531 9.67155 23.531 9.75178 23.5253 9.83163V12.6296L26.4147 9.29476C26.526 9.18099 26.6443 9.07431 26.7687 8.97509C26.886 8.90524 27.0205 8.86954 27.157 8.87221C27.3566 8.87112 27.5518 8.9309 27.7166 9.04354C27.7943 9.09583 27.8606 9.1633 27.9116 9.24178C27.9626 9.32027 27.9973 9.4082 28.0136 9.50039C28.0182 9.523 28.0182 9.54637 28.0136 9.56898C28.008 9.59534 28.008 9.6225 28.0136 9.64886C28.0132 9.76903 27.9817 9.88712 27.9222 9.99153C27.8616 10.1021 27.7888 10.2054 27.7052 10.2998L25.8094 12.3784L28.0935 15.9187V16.0328C28.2121 16.1965 28.3046 16.3777 28.3676 16.5697V16.6267C28.3808 16.759 28.3617 16.8926 28.312 17.0159C28.2623 17.1393 28.1834 17.2486 28.0821 17.3348C27.8916 17.4788 27.6585 17.5552 27.4197 17.5518C27.261 17.5584 27.1035 17.5228 26.9629 17.449C26.8108 17.3469 26.6854 17.2099 26.5974 17.0493L24.4732 13.6231L23.4568 14.6853V16.5924C23.4637 16.848 23.3739 17.0967 23.2056 17.2891C23.1153 17.3773 23.008 17.4462 22.8901 17.4913C22.7723 17.5365 22.6464 17.5571 22.5203 17.5518C22.3096 17.5562 22.1038 17.4876 21.9379 17.3576C21.7766 17.2291 21.6671 17.0466 21.6296 16.8438C21.6183 16.7604 21.6183 16.6758 21.6296 16.5924L21.6981 9.83163Z" fill="#FEE500"/>
</svg>
