<svg width="31" height="31" viewBox="0 0 31 31" fill="none" xmlns="http://www.w3.org/2000/svg">
<path d="M25.9802 9.21996L25.9802 9.21999C27.0159 10.6228 27.5176 12.1229 27.5176 13.7456C27.5176 15.3684 27.0159 16.8715 25.9793 18.2798L26.7128 18.8198L25.9793 18.2798C24.9354 19.6981 23.5055 20.8378 21.654 21.6873C19.808 22.5343 17.7813 22.9638 15.5596 22.9638C14.8644 22.9638 14.1418 22.9141 13.3912 22.8134L12.9906 22.7597L12.6586 22.9901C10.9943 24.145 9.71286 25.0197 8.81072 25.6167C9.02079 24.8767 9.30109 23.9168 9.65216 22.7353L9.90163 21.8957L9.11746 21.5056C7.3867 20.6445 6.04217 19.5194 5.05359 18.1385L5.05358 18.1385C4.07592 16.773 3.60157 15.3167 3.60157 13.7456C3.60157 12.1229 4.10319 10.6228 5.13892 9.21999L5.13893 9.21997C6.1823 7.80674 7.61436 6.66893 9.47149 5.81886L9.04031 4.87689L9.47149 5.81886C11.3234 4.97118 13.3481 4.542 15.5596 4.542C17.771 4.542 19.7957 4.97118 21.6477 5.81886C23.5048 6.66894 24.9369 7.80674 25.9802 9.21996Z" stroke="black" stroke-width="2.08399"/>
</svg>
