<svg width="31" height="31" viewBox="0 0 31 31" fill="none" xmlns="http://www.w3.org/2000/svg">
<path d="M24.4521 26.7617L24.4521 18.176L26.8132 18.176L26.8132 24.3087L24.4521 26.7617Z" fill="black"/>
<path d="M4.91992 24.4014H26.8135L24.3809 26.7624H7.35254L4.91992 24.4014Z" fill="black"/>
<path d="M7.28223 4.86816L7.28223 26.7618L4.92115 24.3291L4.92115 7.30079L7.28223 4.86816Z" fill="black"/>
<path d="M13.7207 7.22949L4.92034 7.22949L7.35314 4.86842L13.7203 4.86842L13.7207 7.22949Z" fill="black"/>
<path fill-rule="evenodd" clip-rule="evenodd" d="M28.0908 3.5H28.0915V5.85077H28.0908V13.0397L25.7405 14.2322V13.0397L25.7405 7.49489L17.5121 15.8152L15.8682 14.153L24.0787 5.85077H18.5518H17.3594L18.5518 3.5H25.7405H28.0908Z" fill="black"/>
</svg>
