<svg width="126" height="34" viewBox="0 0 126 34" fill="none" xmlns="http://www.w3.org/2000/svg">
<path fill-rule="evenodd" clip-rule="evenodd" d="M0 1.70264H125.993V0.702637H0V1.70264ZM89.2972 14.2013C89.9509 14.1734 90.6116 14.1174 91.2652 14.0265C91.9189 13.9356 92.5936 13.8237 93.2824 13.6769L93.0223 15.2432C92.3476 15.2152 91.701 15.2012 91.0754 15.2082C90.4499 15.2152 89.8595 15.2432 89.3042 15.2851V17.6345C89.3042 17.8793 89.3535 18.0541 89.4448 18.159C89.5432 18.2638 89.6557 18.3058 89.7822 18.2918C90.6889 18.2079 91.6096 18.0751 92.5514 17.9072C93.4932 17.7394 94.4913 17.4737 95.5386 17.1101L95.6018 18.0051C94.5194 18.4247 93.4581 18.7883 92.4179 19.0959C91.3777 19.4036 90.3585 19.6273 89.3605 19.7742C88.5873 19.8931 88.0391 19.8091 87.7158 19.5225C87.3925 19.2358 87.2308 18.7463 87.2308 18.0541V12.7819C87.2308 12.5232 87.2027 12.2924 87.1535 12.0966C87.1043 11.9009 87.0059 11.733 86.8653 11.5932C86.7248 11.4533 86.528 11.3345 86.2609 11.2226C85.9938 11.1107 85.6564 10.9988 85.2347 10.887L85.6283 10.0829C87.28 10.3276 88.9106 10.4045 90.5202 10.2996C92.1297 10.1947 93.5917 10.0269 94.8919 9.77519L94.5405 11.4533C93.5214 11.3974 92.5866 11.3834 91.7361 11.4114C90.8927 11.4394 90.0704 11.4883 89.2832 11.5652V14.2013H89.2972ZM103.509 26.8784C102.616 26.8504 101.682 26.8364 100.698 26.8364C99.7135 26.8364 98.7436 26.8504 97.7877 26.8714C96.8318 26.8923 95.9251 26.9203 95.0606 26.9483C94.1961 26.9763 93.4511 27.0112 92.8045 27.0602C92.2914 27.0881 91.9259 26.9902 91.701 26.7525C91.4761 26.5218 91.3636 26.2421 91.3636 25.9274V23.2913C91.3636 22.9697 91.3495 22.711 91.3214 22.5152C91.2933 22.3194 91.209 22.1586 91.0825 22.0257C90.956 21.8929 90.7592 21.788 90.4991 21.6971C90.239 21.6062 89.8946 21.5083 89.4589 21.3894L89.7892 20.5853L89.873 20.596C90.0775 20.6221 90.3291 20.6543 90.6186 20.6972C90.8025 20.7244 90.993 20.7473 91.1876 20.7708L91.1878 20.7708C91.3426 20.7894 91.5 20.8083 91.6588 20.83C91.8273 20.853 91.9941 20.8729 92.1595 20.8927L92.1596 20.8927C92.3461 20.9149 92.5306 20.9369 92.7131 20.9629C92.7767 20.9719 92.8382 20.9805 92.8976 20.9888C93.1593 21.0252 93.3789 21.0558 93.5565 21.0957C93.5284 21.2705 93.5003 21.5293 93.4722 21.8789C93.4441 22.2285 93.43 22.5222 93.43 22.7739V25.2352C93.43 25.5079 93.4722 25.6827 93.5635 25.7456C93.6549 25.8085 93.8517 25.8505 94.1539 25.8645C94.6951 25.8785 95.3769 25.8645 96.1992 25.8225C97.0216 25.7806 97.8861 25.7246 98.7857 25.6617C99.6854 25.5988 100.571 25.5149 101.457 25.424L101.775 25.3888C102.531 25.3055 103.206 25.2311 103.811 25.1513L103.523 26.8923L103.509 26.8784ZM95.3628 15.0264C95.8242 14.9499 96.2787 14.9011 96.7123 14.873V19.1868C96.7123 19.3958 96.7175 19.6406 96.7233 19.921V19.921L96.7264 20.0679C96.7334 20.4101 96.7474 20.7385 96.7615 21.0668L96.7615 21.0678C96.7756 21.3964 96.7896 21.6971 96.8037 21.9628C96.8177 22.2355 96.8318 22.4243 96.8459 22.5431L98.2727 22.3474C98.3289 22.1026 98.3851 21.795 98.4343 21.4244C98.4835 21.0538 98.5327 20.6552 98.5749 20.2357C98.6171 19.8161 98.6522 19.3826 98.6733 18.9491C98.6944 18.5156 98.7084 18.11 98.7084 17.7324V10.2856C98.7084 10.2157 98.7155 10.0968 98.7295 9.93602C98.7404 9.81172 98.7554 9.67906 98.7715 9.53805L98.7716 9.53716L98.7857 9.41159C98.8068 9.2228 98.8349 9.03401 98.8631 8.84522C98.8912 8.65643 98.9193 8.4956 98.9474 8.36275C98.3921 8.21591 97.7525 8.07607 97.0216 7.93622C96.2906 7.80337 95.5807 7.6845 94.8779 7.60059L94.4843 8.38373C94.9271 8.5026 95.2855 8.61447 95.5807 8.73334C95.8689 8.85221 96.1008 8.97807 96.2695 9.12491C96.4382 9.27175 96.5577 9.43257 96.621 9.60738C96.6842 9.78219 96.7194 9.97797 96.7194 10.1947V13.7888C96.5436 13.7888 96.3609 13.7958 96.1711 13.8098C95.9814 13.8307 95.7986 13.8307 95.6229 13.8307C95.3488 13.8447 95.0114 13.8377 94.6178 13.8167C94.2242 13.7958 93.8377 13.7468 93.4581 13.6769L94.1821 15.2642C94.4983 15.1802 94.899 15.0963 95.3628 15.0264ZM98.4484 6.63565C98.7998 6.67761 99.1723 6.74054 99.5659 6.81046C99.7831 6.84904 100 6.88975 100.216 6.93023L100.217 6.93029C100.392 6.96317 100.566 6.99589 100.74 7.02722C101.01 7.07614 101.274 7.12847 101.53 7.17944L101.53 7.17946C101.641 7.20134 101.75 7.22298 101.857 7.24398C102.062 7.28388 102.253 7.32378 102.431 7.36108C102.565 7.38915 102.692 7.41575 102.813 7.43977C102.785 7.57262 102.757 7.73344 102.736 7.92223L102.673 8.48861L102.658 8.61438L102.658 8.61515C102.642 8.75613 102.627 8.88876 102.616 9.01303C102.602 9.17386 102.595 9.29273 102.595 9.36265V17.5087C102.595 17.9002 102.581 18.3268 102.56 18.7953C102.539 19.2568 102.511 19.7392 102.476 20.2217C102.441 20.7112 102.391 21.1796 102.335 21.6411C102.279 22.1026 102.209 22.5082 102.138 22.8718L100.648 23.0885C100.648 22.8578 100.641 22.5641 100.627 22.2145C100.613 21.8649 100.599 21.5083 100.592 21.1377C100.585 20.7671 100.578 20.4035 100.571 20.0469L100.568 19.9017C100.562 19.6061 100.557 19.3468 100.557 19.1239V9.32069C100.557 8.87319 100.381 8.5026 100.03 8.2229C99.6784 7.94321 99.0388 7.6845 98.104 7.44676L98.4554 6.64264L98.4484 6.63565ZM11.7587 13.1106H12.9817L12.9747 13.0966L13.2136 11.4674C12.5108 11.6002 11.6955 11.7051 10.7607 11.782C9.82589 11.8589 8.8911 11.9289 7.94927 11.9778C7.00745 12.0338 6.12185 12.0687 5.29951 12.0897C4.47718 12.1107 3.81649 12.1247 3.31747 12.1247C3.11364 12.1247 2.86764 12.1107 2.56541 12.0897C2.29707 12.0706 2.02293 12.0458 1.74297 12.0204L1.65873 12.0128C1.35651 11.9848 1.05428 11.9498 0.752053 11.9149C0.456855 11.8799 0.203827 11.838 0 11.796L0.878567 13.628C1.05428 13.6 1.27919 13.5651 1.56736 13.5301C1.8485 13.4951 2.1437 13.4602 2.45296 13.4322L2.45313 13.4322C2.7553 13.4042 3.05747 13.3763 3.33855 13.3553C3.52016 13.3418 3.68123 13.3282 3.81989 13.3165L3.82009 13.3165L3.82036 13.3165C3.89617 13.3101 3.96527 13.3043 4.02735 13.2994C4.32958 13.2854 4.72317 13.2714 5.18706 13.2574C5.65094 13.2434 6.16402 13.2294 6.71928 13.2155C7.27453 13.2015 7.85087 13.1875 8.4483 13.1735C9.04572 13.1595 9.62909 13.1455 10.1914 13.1315C10.7537 13.1176 11.2738 13.1106 11.7587 13.1106ZM11.2667 19.8931C11.5057 19.4246 11.6252 18.9282 11.6252 18.4037L11.6322 18.4107C11.6322 17.8933 11.5198 17.3969 11.2949 16.9214C11.0629 16.4459 10.7396 16.0334 10.3179 15.6767C9.88915 15.3201 9.38309 15.0335 8.7927 14.8237C8.2023 14.6139 7.54162 14.509 6.81065 14.509C6.13591 14.509 5.51037 14.6069 4.927 14.7957C4.33661 14.9845 3.83055 15.2502 3.40181 15.5928C2.97307 15.9355 2.62867 16.341 2.38267 16.8235C2.13667 17.299 2.01016 17.8304 2.01016 18.4107C2.01016 18.9282 2.13667 19.4316 2.38267 19.9001C2.62867 20.3756 2.97307 20.7811 3.40181 21.1307C3.83758 21.4804 4.34363 21.76 4.927 21.9698C5.51037 22.1796 6.12185 22.2845 6.81065 22.2845C7.49944 22.2845 8.13904 22.1796 8.72944 21.9768C9.31983 21.774 9.83292 21.4943 10.2617 21.1377C10.6904 20.7811 11.0278 20.3686 11.2667 19.8931ZM8.93327 10.1878H9.73452L10.0859 8.79632C9.74858 8.84527 9.39012 8.88722 9.01058 8.92918L8.7829 8.95447C8.4841 8.98775 8.19336 9.02012 7.9071 9.04804C7.54864 9.08301 7.22533 9.11098 6.92311 9.12496C6.62792 9.14594 6.38896 9.14594 6.21325 9.14594H6.21322C6.02345 9.14594 5.79151 9.13195 5.52443 9.11098C5.25734 9.09 4.98323 9.06203 4.69506 9.02707C4.40689 8.99211 4.13278 8.95714 3.87272 8.9082C3.61267 8.85925 3.39478 8.8173 3.21907 8.77534L4.11872 10.4325C4.29443 10.4046 4.49826 10.3766 4.7302 10.3556C4.96917 10.3346 5.20111 10.3137 5.43306 10.2927C5.665 10.2717 5.87585 10.2577 6.06562 10.2507C6.25539 10.2367 6.39597 10.2367 6.50139 10.2367C6.66503 10.2367 6.86003 10.2315 7.08187 10.2256L7.19019 10.2228C7.4643 10.2158 7.74544 10.2088 8.04767 10.2018C8.34285 10.1878 8.63803 10.1878 8.93321 10.1878H8.93327ZM4.39283 19.3617C4.25226 19.0261 4.18198 18.6695 4.18198 18.2919C4.18198 17.8863 4.25226 17.5157 4.39283 17.1801C4.5334 16.8445 4.72317 16.5578 4.96214 16.32C5.20111 16.0823 5.48226 15.9005 5.80557 15.7676C6.12888 15.6348 6.46625 15.5719 6.85985 15.5719C7.25345 15.5719 7.6119 15.6488 7.93521 15.8026C8.2515 15.9564 8.53264 16.1592 8.76458 16.4039C8.99652 16.6487 9.17926 16.9354 9.31281 17.264C9.44635 17.5926 9.50961 17.9353 9.50961 18.2989C9.50961 18.6904 9.43932 19.054 9.29875 19.3967C9.15818 19.7393 8.96841 20.033 8.72944 20.2777C8.49047 20.5224 8.20933 20.7182 7.88601 20.865C7.56973 21.0119 7.22533 21.0818 6.85985 21.0818C6.49436 21.0818 6.14997 21.0049 5.81963 20.851C5.48928 20.6972 5.20111 20.4944 4.96214 20.2427C4.72317 19.991 4.5334 19.6973 4.39283 19.3617ZM13.551 6.79652C13.1293 6.73359 12.7427 6.67765 12.3913 6.6357L12.3983 6.64269L12.0047 7.44681C12.9747 7.68455 13.6705 7.93627 14.0992 8.22295C14.528 8.50265 14.7459 8.87324 14.7459 9.32074V22.9977C14.7459 23.405 14.7523 23.8315 14.759 24.2771L14.7599 24.3402C14.7669 24.8087 14.781 25.2702 14.8021 25.7107C14.8232 26.1512 14.8443 26.5708 14.8653 26.9623C14.8864 27.3539 14.9145 27.6685 14.9427 27.8993L16.4116 27.7035C16.4679 27.3889 16.5241 26.9623 16.5663 26.4309C16.6084 25.8995 16.6506 25.3401 16.6857 24.7528C16.7209 24.1654 16.749 23.578 16.7701 22.9907C16.7912 22.4033 16.8052 21.8789 16.8052 21.4314V9.3627C16.8052 9.29278 16.8123 9.17391 16.8263 9.01308C16.8404 8.85925 16.8615 8.67745 16.8896 8.48167L16.8897 8.48056C16.9178 8.28514 16.9458 8.08974 16.9739 7.90131C17.002 7.71251 17.0301 7.55169 17.0583 7.41884C16.8005 7.38221 16.5107 7.3296 16.1841 7.27031L16.0391 7.24403C15.6525 7.16712 15.2449 7.0902 14.8232 7.01329L14.7168 6.99419C14.3246 6.92373 13.9378 6.85424 13.551 6.79652ZM28.1439 11.3496C29.2225 11.5113 30.1402 11.9024 30.8972 12.523C31.6563 13.1453 32.1413 13.9005 32.3451 14.7885L32.3453 14.7885C32.6404 14.8165 32.9356 14.8445 33.2447 14.8654C33.554 14.8864 33.8211 14.8934 34.053 14.8794C34.3763 14.8654 34.7277 14.8514 35.1143 14.8445C35.5009 14.8445 35.8523 14.8165 36.1756 14.7885V9.32054C36.1756 8.87303 35.9577 8.50244 35.529 8.22274C35.1003 7.94305 34.4044 7.68434 33.4345 7.4466L33.8281 6.64248C34.1795 6.68444 34.5661 6.74038 34.9878 6.80331C35.3746 6.86103 35.7614 6.93052 36.1536 7.00098L36.26 7.02007C36.6817 7.09698 37.0893 7.1739 37.4759 7.25081L37.6208 7.27709C37.9475 7.33638 38.2373 7.389 38.495 7.42562C38.4669 7.55848 38.4388 7.7193 38.4107 7.90809C38.3826 8.09688 38.3545 8.29267 38.3334 8.48845L38.3158 8.64945L38.3158 8.6496L38.3158 8.64966C38.301 8.78406 38.2873 8.9092 38.2772 9.01987C38.2631 9.18069 38.2561 9.29956 38.2561 9.36948V21.4382C38.2561 21.8857 38.242 22.4101 38.2209 22.9975C38.1998 23.5848 38.1717 24.1722 38.1366 24.7595C38.1014 25.3469 38.0593 25.9063 38.003 26.4377C37.9538 26.9691 37.8976 27.3956 37.8414 27.7103L36.3935 27.9061C36.3654 27.6753 36.3373 27.3607 36.3092 26.9691C36.2811 26.5775 36.2529 26.158 36.2319 25.7175C36.2108 25.277 36.1967 24.8155 36.1897 24.347L36.1887 24.2834C36.182 23.8379 36.1756 23.4117 36.1756 23.0045V15.8374C35.5923 15.8653 34.9738 15.9073 34.3271 15.9702C33.6805 16.0262 33.0409 16.1171 32.4083 16.2289C32.3521 16.8093 32.1764 17.3407 31.8812 17.8302C31.586 18.3196 31.2135 18.7392 30.7566 19.0958C30.2998 19.4524 29.7586 19.7251 29.1471 19.9209C28.5356 20.1167 27.8749 20.2145 27.1791 20.2145C26.406 20.2145 25.6961 20.1027 25.0424 19.8789C24.3958 19.6552 23.8335 19.3405 23.3556 18.9419C22.8776 18.5434 22.5122 18.0679 22.2521 17.5225C21.992 16.9771 21.8585 16.3898 21.8585 15.7465C21.8585 15.1661 21.978 14.6137 22.2099 14.0893C22.4419 13.5649 22.7652 13.1104 23.1869 12.7188C23.6086 12.3272 24.0936 12.0056 24.6629 11.7608C25.2322 11.5161 25.8577 11.3693 26.5465 11.3273C26.5325 11.1245 26.4622 10.9637 26.3357 10.8379C26.2092 10.712 25.9772 10.5931 25.6258 10.4813L25.9351 9.83097C26.0521 9.85893 26.1786 9.88688 26.3144 9.9169L26.3146 9.91694C26.3825 9.93197 26.4528 9.94751 26.5255 9.96383C26.6393 9.9894 26.755 10.0112 26.8717 10.0331L26.8717 10.0331L26.8717 10.0331L26.8717 10.0331L26.8717 10.0331L26.8718 10.0331L26.8718 10.0331C26.9784 10.0531 27.0858 10.0733 27.1932 10.0967C27.3005 10.1201 27.4079 10.1402 27.5146 10.1603C27.6312 10.1822 27.747 10.204 27.8609 10.2295C27.9354 10.2463 28.0074 10.2614 28.077 10.276L28.077 10.276L28.0771 10.276C28.2109 10.304 28.3357 10.3302 28.4513 10.3624C28.395 10.4952 28.3318 10.6491 28.2756 10.8169C28.2206 10.981 28.1723 11.1651 28.1439 11.3496ZM30.11 14.39C30.2717 14.7885 30.349 15.222 30.349 15.6835C30.349 16.145 30.2717 16.5785 30.11 16.9771C29.9554 17.3757 29.7375 17.7183 29.4564 17.998C29.1752 18.2777 28.8449 18.5014 28.4583 18.6623C28.0717 18.8231 27.657 18.9 27.2213 18.9C26.7855 18.9 26.3708 18.8231 25.9843 18.6623C25.5977 18.5014 25.2533 18.2777 24.9651 17.998C24.6769 17.7183 24.445 17.3757 24.2763 16.9771C24.1076 16.5785 24.0233 16.145 24.0233 15.6835C24.0233 15.222 24.1076 14.7885 24.2763 14.39C24.445 13.9844 24.6699 13.6418 24.9651 13.3411C25.2603 13.0474 25.5977 12.8097 25.9843 12.6349C26.3708 12.4601 26.7855 12.3762 27.2213 12.3762C27.657 12.3762 28.0647 12.4601 28.4442 12.6349C28.8238 12.8097 29.1541 13.0404 29.4423 13.3411C29.7234 13.6418 29.9483 13.9914 30.11 14.39ZM55.202 23.1934C55.687 23.1794 56.0806 23.1654 56.3828 23.1514C57.3598 23.1095 58.3578 23.0326 59.3699 22.9347C60.382 22.8298 61.2887 22.7319 62.0759 22.627L61.8158 24.41C61.2325 24.3821 60.4734 24.3611 59.5386 24.3471C58.6038 24.3331 57.6479 24.3191 56.671 24.3052C56.2633 24.3052 55.7643 24.3052 55.1809 24.3191C54.5975 24.3261 53.965 24.3401 53.2902 24.3611C52.6155 24.3821 51.9197 24.4031 51.2098 24.424C50.4999 24.445 49.8252 24.466 49.1856 24.487C48.546 24.5079 47.9626 24.5359 47.4425 24.5639C46.9224 24.5918 46.5218 24.6128 46.2266 24.6268C45.6713 24.6548 45.0809 24.6967 44.4554 24.7597C43.9459 24.8052 43.4644 24.8554 43.0109 24.9027L42.7053 24.9345L42.0024 23.0396C42.6561 23.1095 43.3589 23.1724 44.0969 23.2214C44.8349 23.2703 45.5378 23.3123 46.2125 23.3402C46.4866 23.3542 46.824 23.3612 47.2176 23.3612H48.5179C48.9888 23.3612 49.4878 23.3612 49.9939 23.3472C50.3729 23.3472 50.7519 23.3358 51.1366 23.3242L51.1367 23.3241C51.2728 23.32 51.4095 23.3159 51.5472 23.3123V19.6763C50.7178 19.6902 49.9376 19.7042 49.2067 19.7182C48.4757 19.7322 47.8431 19.7532 47.3019 19.7811C46.8029 19.8091 46.4585 19.7042 46.2477 19.4665C46.0368 19.2288 45.9384 18.9281 45.9384 18.5645V15.9703C45.9384 15.7116 45.9173 15.4949 45.8822 15.327C45.847 15.1592 45.7697 15.0124 45.6643 14.8935C45.5518 14.7677 45.3972 14.6628 45.1934 14.5789C44.9895 14.495 44.7084 14.3901 44.364 14.2712L44.7365 13.6209C45.4675 13.6908 46.2968 13.7468 47.2246 13.7748C48.1524 13.8027 49.1012 13.8167 50.0852 13.8167C51.0692 13.8167 52.0392 13.8027 53.0091 13.7817C53.979 13.7608 54.8717 13.7258 55.694 13.6839L55.8697 10.1737C55.5183 10.1597 55.0263 10.1527 54.3797 10.1527C53.733 10.1527 53.0653 10.1667 52.3625 10.1877C51.6596 10.2087 50.9849 10.2297 50.3383 10.2506C49.6916 10.2716 49.1785 10.2996 48.8131 10.3276C48.6514 10.3415 48.4476 10.3555 48.1875 10.3695C47.9345 10.3835 47.6534 10.4045 47.3582 10.4324C47.0559 10.4604 46.7537 10.4954 46.4374 10.5443C46.3129 10.5636 46.1917 10.5807 46.0737 10.5973C45.892 10.623 45.718 10.6475 45.5518 10.6772L44.5889 8.95706C44.6736 8.9731 44.779 8.99144 44.9053 9.0134C44.9992 9.02973 45.1046 9.04806 45.2215 9.06894C45.4494 9.10963 45.6918 9.13582 45.9489 9.16359L45.949 9.1636L46.1071 9.18081L46.1787 9.18716L46.1788 9.18717C46.4703 9.21298 46.7566 9.23834 47.0489 9.25773C47.3652 9.27871 47.6323 9.29269 47.8502 9.29269H50.0431C50.9497 9.29269 51.9056 9.27871 52.9107 9.25773C53.9158 9.23675 54.9068 9.20179 55.8767 9.15984C56.8467 9.11788 57.6831 9.06894 58.3859 9.00601C58.3438 9.13886 58.2805 9.36961 58.2032 9.70524C58.1259 10.0409 58.0696 10.3345 58.0415 10.6003L57.6058 13.544C57.915 13.53 58.1821 13.509 58.414 13.4811L58.2594 14.8725C57.4441 14.8306 56.5234 14.8096 55.4972 14.8096C54.471 14.8096 53.473 14.8166 52.496 14.8306C51.519 14.8446 50.6264 14.8656 49.8252 14.8865C49.0239 14.9075 48.4406 14.9285 48.0751 14.9425C48.0751 15.0613 48.068 15.1802 48.054 15.2991C48.0399 15.4249 48.0329 15.5438 48.0329 15.6557V18.096C48.0329 18.3128 48.068 18.4456 48.1313 18.5016C48.1946 18.5505 48.3703 18.5855 48.6444 18.5994C48.9958 18.6134 49.4386 18.6204 49.9798 18.6134C50.4741 18.6134 51.0036 18.5901 51.5789 18.5647L51.744 18.5575C52.2463 18.5353 52.7665 18.5087 53.3043 18.4811L53.726 18.4596C54.4148 18.4246 55.0825 18.3827 55.7432 18.3267C56.3968 18.2778 57.0154 18.2219 57.5917 18.1659C58.168 18.11 58.66 18.0401 59.0677 17.9701L58.6952 19.6902C57.9923 19.6623 57.2051 19.6413 56.3336 19.6343C55.4714 19.6274 54.589 19.6341 53.6729 19.6409L53.6206 19.6413V23.2563C54.2039 23.2283 54.7381 23.2074 55.2161 23.1934H55.202ZM73.8066 17.9695C74.6937 17.9417 75.5044 17.9209 76.2525 17.907C77.0046 17.893 77.595 17.872 78.0167 17.844C78.9937 17.8021 79.9847 17.7322 80.9968 17.6483C82.0089 17.5643 82.9086 17.4595 83.7098 17.3406L83.4216 19.1027C83.1264 19.0887 82.7891 19.0747 82.4025 19.0607C82.0159 19.0467 81.5942 19.0327 81.1444 19.0257C80.8128 19.0257 80.4697 19.0143 80.1208 19.0027L80.1207 19.0027L80.1206 19.0027L80.1205 19.0027L80.1199 19.0027L80.1194 19.0027C79.9955 18.9986 79.8708 18.9944 79.7457 18.9908C79.2607 18.9768 78.7828 18.9698 78.2978 18.9698C77.8902 18.9698 77.3701 18.9698 76.7445 18.9838C76.119 18.9908 75.4372 19.0048 74.6992 19.0257C73.9612 19.0467 73.2092 19.0677 72.436 19.0887C71.6629 19.1096 70.9319 19.1306 70.2361 19.1516C69.5403 19.1726 68.9218 19.2005 68.3665 19.2285C67.8113 19.2565 67.3896 19.2775 67.0944 19.2914C66.5532 19.3194 65.9628 19.3614 65.3232 19.4243C64.6836 19.4802 64.1072 19.5502 63.5942 19.6201L62.8491 17.7252C63.5028 17.7951 64.2127 17.858 64.9647 17.907C65.7168 17.9559 66.4196 17.9979 67.0803 18.0258C67.5653 18.0538 68.233 18.0678 69.0834 18.0608C69.891 18.0608 70.7422 18.036 71.6429 18.0097L71.6431 18.0097L71.8105 18.0049V16.5435C71.8105 16.3267 71.7894 16.1379 71.7543 15.9911C71.7191 15.8442 71.6418 15.7114 71.5223 15.6065C71.4028 15.5016 71.2342 15.4177 71.0092 15.3478C70.7843 15.2779 70.4821 15.194 70.1026 15.11L70.4329 14.3689C70.6648 14.3689 70.9319 14.3759 71.2342 14.3898C71.5364 14.4038 71.8456 14.4248 72.1619 14.4528C72.4852 14.4807 72.8015 14.5157 73.1248 14.5647C73.4482 14.6136 73.7504 14.6625 74.0456 14.7185C74.0175 14.8513 73.9893 15.0052 73.9612 15.173C73.9331 15.3408 73.905 15.5226 73.8839 15.6974L73.8685 15.8237L73.8683 15.8249L73.868 15.8272L73.868 15.828C73.8526 15.9531 73.8382 16.0704 73.8277 16.1799C73.8136 16.3267 73.8066 16.4386 73.8066 16.5295V17.9695ZM75.5989 13.4319L77.5598 13.1802L77.5669 13.1732C77.4755 13.8165 77.3841 14.4248 77.2787 15.0052C77.1733 15.5855 77.0749 16.075 76.9694 16.4666H78.5017C78.7336 15.9421 78.9515 15.3478 79.1553 14.6695C79.3591 13.9913 79.5489 13.306 79.7246 12.5998C79.9003 11.8936 80.055 11.2014 80.1955 10.5091C80.3291 9.82387 80.4486 9.19456 80.554 8.62819L79.9847 8.08279C79.331 8.18068 78.572 8.27158 77.7074 8.3415C76.85 8.41143 75.9573 8.47436 75.0366 8.51631C74.1159 8.55826 73.2021 8.59323 72.2884 8.6142C71.3747 8.63518 70.5313 8.64916 69.7582 8.64916C69.5262 8.64916 69.2591 8.63518 68.9499 8.6142C68.7077 8.59778 68.4613 8.57706 68.2037 8.55542L68.2035 8.5554L67.987 8.53729C67.6566 8.50932 67.3193 8.47436 66.9819 8.43939C66.8175 8.42236 66.6599 8.40533 66.5096 8.38911C66.3515 8.37203 66.2017 8.35585 66.0612 8.3415L67.0241 10.1735C67.3122 10.1175 67.6356 10.0616 67.987 10.0127C68.3384 9.95672 68.6898 9.91477 69.0413 9.87981C69.3927 9.84485 69.723 9.81688 70.0393 9.7959C70.1993 9.78529 70.3466 9.77468 70.4814 9.76498L70.4818 9.76496L70.4821 9.76493C70.6136 9.75547 70.7331 9.74686 70.8406 9.73996C71.2974 9.71199 71.8175 9.68402 72.4079 9.66305C72.9983 9.64207 73.6168 9.62109 74.2564 9.60012C74.896 9.57914 75.5427 9.56516 76.1823 9.55816C76.8218 9.54418 77.4122 9.54418 77.9534 9.54418C77.9375 9.75812 77.9193 9.98554 77.9002 10.2251L77.9001 10.2262C77.8854 10.4092 77.8702 10.5992 77.855 10.7958C77.8199 11.2503 77.7637 11.7258 77.6934 12.2222C76.3228 12.397 74.9171 12.5369 73.4763 12.6488C72.0354 12.7606 70.7 12.8306 69.477 12.8585C69.2766 12.8585 69.05 12.8533 68.7926 12.8474L68.6687 12.8445C68.3595 12.8376 68.0432 12.8166 67.7129 12.7886C67.3825 12.7606 67.0522 12.7327 66.7148 12.7047C66.3774 12.6697 66.0682 12.6348 65.7941 12.5928L66.7359 14.3339C67.0241 14.292 67.3474 14.25 67.6988 14.215C68.0502 14.1801 68.4017 14.1451 68.7531 14.0962C69.1045 14.0472 69.4349 14.0123 69.7511 13.9843C70.0674 13.9563 70.3345 13.9353 70.5524 13.9214C70.9671 13.9074 71.438 13.8724 71.9792 13.8235C72.3783 13.7874 72.7965 13.7437 73.2338 13.698C73.3895 13.6817 73.5477 13.6652 73.7082 13.6487C74.2418 13.5937 74.7914 13.5282 75.3523 13.4613L75.5989 13.4319ZM78.0308 26.8711C79.1061 26.8921 80.0901 26.927 80.9968 26.969L81.0038 26.955L81.292 25.2139C80.8703 25.2699 80.3713 25.3328 79.7949 25.3887C79.2186 25.4447 78.6071 25.4936 77.9464 25.5426C77.2857 25.5915 76.618 25.6265 75.9292 25.6544L75.6644 25.6652C75.0691 25.6895 74.4904 25.7131 73.9331 25.7314C73.2935 25.7523 72.7031 25.7663 72.1619 25.7733C71.6207 25.7873 71.1709 25.7873 70.8054 25.7873C70.5032 25.7733 70.3064 25.7314 70.215 25.6684C70.1237 25.6055 70.0815 25.4307 70.0815 25.158V23.0463C70.0815 22.7806 70.0955 22.4799 70.1236 22.1303C70.1518 21.7807 70.1799 21.522 70.208 21.3472C70.056 21.3277 69.8733 21.3014 69.6598 21.2706C69.5672 21.2573 69.4688 21.2431 69.3646 21.2283C69.17 21.2007 68.9732 21.1752 68.7742 21.1495C68.6209 21.1297 68.4663 21.1098 68.3103 21.0885C68.1516 21.0668 67.9942 21.0479 67.8395 21.0292L67.8393 21.0292L67.8392 21.0292C67.6445 21.0058 67.454 20.9829 67.2701 20.9556C66.9807 20.9127 66.729 20.8806 66.5246 20.8545L66.4407 20.8437L66.0893 21.6479C66.5391 21.7597 66.8976 21.8716 67.1506 21.9625C67.4106 22.0534 67.6074 22.1653 67.734 22.2981C67.8605 22.431 67.9448 22.5848 67.9729 22.7806C68.001 22.9764 68.0151 23.2281 68.0151 23.5498V25.8712C68.0151 26.1928 68.1205 26.4725 68.3314 26.7033C68.5422 26.941 68.9077 27.0389 69.4349 27.0109C70.0885 26.969 70.8898 26.934 71.8316 26.9131C72.7734 26.8921 73.7715 26.8711 74.8328 26.8571C75.8941 26.8431 76.9554 26.8501 78.0308 26.8711ZM123.456 24.2421C124.39 24.2561 125.15 24.2771 125.733 24.305H125.74L126 22.494C125.213 22.5989 124.306 22.6968 123.294 22.8017C122.282 22.8996 121.284 22.9765 120.307 23.0185C120.161 23.0243 120 23.0312 119.822 23.039L119.822 23.039L119.821 23.039C119.571 23.0499 119.288 23.0621 118.971 23.0744C118.43 23.0954 117.84 23.1163 117.207 23.1303C116.651 23.1426 116.078 23.1603 115.485 23.1787L115.239 23.1863C114.565 23.2072 113.904 23.2212 113.271 23.2282C112.639 23.2422 112.048 23.2422 111.5 23.2422C110.952 23.2422 110.495 23.2352 110.13 23.2212C109.455 23.1933 108.752 23.1583 108.014 23.1024C107.276 23.0464 106.573 22.9835 105.919 22.9136L106.622 24.8504C107.164 24.7805 107.747 24.7106 108.372 24.6547C108.998 24.5917 109.588 24.5498 110.144 24.5218C110.439 24.5078 110.839 24.4868 111.36 24.4589C111.88 24.4309 112.463 24.4029 113.103 24.382C113.742 24.361 114.417 24.34 115.127 24.319C115.837 24.298 116.533 24.2771 117.207 24.2561C117.629 24.243 118.034 24.2353 118.42 24.228L118.421 24.228H118.421C118.653 24.2236 118.879 24.2194 119.098 24.2141C119.681 24.2002 120.18 24.2002 120.588 24.2002C121.565 24.2141 122.521 24.2281 123.456 24.2421ZM117.036 15.7948C117.557 15.9815 118.114 16.1681 118.711 16.3548C119.316 16.5436 119.934 16.7254 120.574 16.9002C121.214 17.075 121.839 17.2358 122.465 17.3897C123.09 17.5435 123.709 17.6623 124.306 17.7463L123.083 19.3335C122.633 19.1447 122.106 18.928 121.509 18.6832L121.11 18.5197L121.109 18.5194L121.107 18.5185C120.633 18.3238 120.142 18.1224 119.639 17.9211C118.993 17.6623 118.339 17.4106 117.692 17.1729C117.046 16.9352 116.448 16.7114 115.907 16.5086C114.621 17.2918 113.285 17.984 111.901 18.5783C110.516 19.1727 109.11 19.6621 107.698 20.0397L107.149 19.3615C108.274 18.9979 109.356 18.5644 110.404 18.0539C111.444 17.5435 112.435 16.9911 113.37 16.3967C114.305 15.8024 115.176 15.1661 115.977 14.4948C116.779 13.8236 117.51 13.1523 118.17 12.4741C117.306 12.4741 116.42 12.509 115.506 12.5859C114.593 12.6559 113.763 12.7048 113.018 12.7188C112.857 12.7188 112.646 12.7328 112.372 12.7538C112.098 12.7747 111.816 12.8027 111.507 12.8377C111.198 12.8726 110.889 12.9076 110.579 12.9495C110.263 12.9845 109.982 13.0265 109.736 13.0684L108.661 11.3063C108.836 11.3343 109.068 11.3693 109.349 11.4042C109.638 11.4392 109.94 11.4742 110.256 11.5021L110.328 11.5084C110.626 11.5342 110.92 11.5596 111.219 11.579C111.542 11.6 111.823 11.614 112.076 11.614C112.618 11.614 113.264 11.607 114.016 11.593C114.768 11.579 115.556 11.5511 116.378 11.5091C117.2 11.4672 118.016 11.4042 118.817 11.3343C119.618 11.2644 120.335 11.1665 120.961 11.0476L121.663 11.7259C121.01 12.4811 120.293 13.1943 119.52 13.8725C118.75 14.548 117.924 15.1819 117.036 15.7948ZM117.819 9.6212H118.683V9.6282L119.098 8.29966C118.747 8.34161 118.367 8.38357 117.959 8.41853C117.552 8.45349 117.151 8.48146 116.757 8.50243L116.441 8.51957L116.441 8.51958L116.441 8.5196C116.169 8.53443 115.916 8.54824 115.682 8.55837C115.359 8.57935 115.113 8.57935 114.937 8.57935C114.782 8.57935 114.558 8.56537 114.283 8.54439C114.009 8.52341 113.714 8.49544 113.398 8.46048C113.089 8.42552 112.779 8.39056 112.47 8.34161C112.161 8.29267 111.915 8.25071 111.725 8.20876L112.667 9.88691C112.829 9.85894 113.039 9.83097 113.292 9.803C113.545 9.77503 113.798 9.74706 114.059 9.72609C114.319 9.70511 114.558 9.69113 114.782 9.68413C115.007 9.67015 115.169 9.67015 115.274 9.67015C115.398 9.67015 115.566 9.6657 115.768 9.66035L115.928 9.65617C116.202 9.64917 116.504 9.64218 116.835 9.63519C117.165 9.6212 117.488 9.6212 117.819 9.6212ZM125.993 33.217H0V32.217H125.993V33.217Z" fill="black"/>
</svg>
